# xmcd
#
# Track frame offsets:
#	150
#	19747
#	36264
#	53631
#	70788
#	89007
#	110564
#	129391
#	133138
#	147852
#	162997
#	184884
#
# Disc length: 2694 seconds
#
# Revision: 1
# Processed by: cddbd v1.5.1PL0 Copyright (c) Steve Scherf et al.
# Submitted via: CDex 1.50Beta5
#
DISCID=ac0a840c
DTITLE=Tommy february6 - Tommy february6
DYEAR=2002
DGENRE=
TTITLE0=T.O.M.M.Y
TTITLE1=EVERYDAY AT THE BUS STOP
TTITLE2=トミーフェブラッテ、マカロン。
TTITLE3=Bloomin’!
TTITLE4=HEY BAD BOY
TTITLE5=KISS ONE MORE TIME
TTITLE6=WHERE ARE YOU?”MY HERO”
TTITLE7=WALK AWAY FROM YOU MY BABE
TTITLE8=恋は眠らない
TTITLE9=Can’t take my eyes off of you
TTITLE10=I’LL BE YOUR ANGEL
TTITLE11=★CANDY POP IN LOVE★
EXTD=
EXTT0=
EXTT1=
EXTT2=
EXTT3=
EXTT4=
EXTT5=
EXTT6=
EXTT7=
EXTT8=
EXTT9=
EXTT10=
EXTT11=
PLAYORDER=
